<?xml version="1.0" encoding="utf-8"?>
<!-- Generator: Adobe Illustrator 19.0.0, SVG Export Plug-In . SVG Version: 6.00 Build 0)  -->
<svg version="1.1" id="Layer_1" xmlns="http://www.w3.org/2000/svg" xmlns:xlink="http://www.w3.org/1999/xlink" x="0px" y="0px"
	 viewBox="189 547 595 841" style="enable-background:new 0 0 595.3 841.9;" width="240px" xml:space="preserve" preserveAspectRatio="xMinYMin meet"  >
<style type="text/css">
	.st0{fill:#1C234F;}
</style>
<path id="XMLID_1_" class="st0" d="M190.6,561.3c5.6-0.1,11.2,0,16.7,0c1.5,0,1.1,1.2,1.1,2c0,5.6,0,11.2,0,16.8c0,0.8,0,1.5,0,2.9
	c1.1-1.1,1.8-1.7,2.5-2.3c5-4.9,10.1-9.8,14.9-14.8c3.2-3.3,6.9-4.7,11.4-4.7c9.5,0.1,19,0,28.4,0c12.2,0,24.5,0,36.7,0
	c0.8,0,1.7,0,3.2,0c-2,3.4-3.5,6.5-5.5,9.2c-0.8,1-2.7,1.6-4.1,1.6c-4.2,0.2-8.5,0.1-12.7,0.1c-0.8,0-1.5,0-2.6,0
	c0,13.6,0,27,0,40.6c-6,0-11.7,0-17.6,0c0-0.9,0-1.8,0-2.6c0-10.8,0-21.5,0-32.3c0-4.6-1.1-5.7-5.6-5.7c-5.7,0-11.3,0-17,0
	c-0.8,0-1.8,0.2-2.3,0.7c-3.8,3.5-7.5,7-11.5,10.8c7.8,9.7,15.5,19.2,23.4,29c-0.8,0.1-1.3,0.2-1.8,0.2c-4.6,0-9.2-0.1-13.8,0
	c-4.2,0.1-7.4-1.5-9.9-4.8c-3.9-5.1-7.8-10.3-11.7-15.4c-0.4-0.5-0.7-1.1-1.2-1.5c-0.6-0.5-1.6-1.1-2.1-0.9c-0.5,0.2-1,1.3-1,2
	c-0.1,5.7,0,11.3,0,17c0,4.1,0.4,3.5-3.5,3.5c-4.8,0-9.6,0-14.4,0C190.6,595.7,190.6,578.4,190.6,561.3z M400.4,591.7
	c4.4,0,8.8-0.1,13.2,0c3.2,0.1,5.2,2.2,5.1,5.3c-0.1,3-1.9,4.8-5.2,4.9c-5,0-10,0.1-15.1,0c-5.5-0.1-9.2-2.9-11.4-7.8
	c-1.6-3.5-1.7-7.3-1-11c1.2-6.4,5-9.9,11.4-10.7c1.2-0.1,2.4-0.2,3.6-0.2c8.3,0,16.6,0.1,24.8-0.1c1.6,0,3.7-0.5,4.6-1.6
	c2.1-2.7,3.6-5.8,5.5-9.1c-1.2-0.1-1.8-0.1-2.5-0.1c-13.8,0-27.6-0.1-41.4,0c-10.4,0.1-18.5,5.6-22.2,15.1
	c-2.3,5.8-2.6,11.8-1.2,17.9c2.7,11.3,12,19.1,23.8,18.7c9,0,17,0,25.5-0.1c11.8-0.1,18.6-7.4,17.9-19.1
	c-0.4-7.1-4.7-12.1-11.8-12.7c-5.8-0.5-11.6-0.4-17.4-0.2c-1.4,0-3.3,1-4.1,2.1c-1.9,2.5-3.2,5.4-5,8.7
	C398.8,591.7,399.6,591.7,400.4,591.7z M314,576.9c-7.2,4.1-11.4,10.2-11.6,18.5c-0.2,8.5,3.4,15.1,10.9,19.3
	c2.7,1.5,5.6,2.7,8.6,3.5c10.4,2.8,20.3,1.6,28.9-5.3c6.1-4.8,9.2-11.1,8-19c-0.5-3.5-2.4-6.2-5-8.5c7-4.2,9.9-10.8,6.9-15.4
	c-0.3,0.3-0.7,0.5-0.9,0.8c-2.4,3.8-6,5.9-10,7.4c-1.7,0.6-3.5,1.2-5.2,1.9c-4.8,1.9-7.9,5.4-9.3,10.3c-0.4,1.5-0.2,3.2-0.3,4.8
	c0.3,0,0.5,0.1,0.8,0.1c0.4-0.5,0.7-1,1.1-1.5c1-1.2,1.9-2.6,3.2-3.7c2.4-2,5.3-2.3,8.2-1c2.8,1.2,3.9,3.5,4.2,6.4
	c0.3,3.4-0.7,6.4-2.6,9.2c-5.2,7.5-15.4,10.1-24.1,6.1c-11.3-5.2-14.2-20.9-5.5-30c1.5-1.5,2.9-2.3,5.2-1.7c2.2,0.5,4.6,0.4,6.9,0.2
	c1.6-0.1,3.4-0.9,3.4-2.9c0-2-1.8-2.6-3.5-2.8c-2.2-0.2-4.4-0.2-6.5,0c-1.4,0.2-2.2-0.2-3.1-1.2c-4.7-5.7-1.8-15.6,5.3-17.9
	c5.2-1.7,10.1-0.2,13.6,4.2c0.9,1.1,1.9,2.2,2.9,3.3c0.3-0.1,0.6-0.2,0.8-0.3c0-1.5-0.2-3.1,0-4.5c0.5-3.9-1.5-6.1-4.9-7.4
	c-6.2-2.5-12.3-2.5-18.7-0.6c-11.2,3.4-16.4,18.3-5.8,26.5C315.2,576.3,314.6,576.6,314,576.9z M463.8,598.4h5v-9.3l2.6,0.4l5.8,8.8
	h5.7l-5.8-8.6l-1.8-1c1.6-0.5,2.9-1.3,3.9-2.4c1-1.2,1.4-2.7,1.4-4.5c0-1.2-0.3-2.3-0.8-3.1c-0.5-0.8-1.3-1.5-2.2-2
	c-0.9-0.5-1.9-0.8-3.1-1c-1.1-0.2-2.3-0.3-3.5-0.3c-0.5,0-1.1,0-1.7,0c-0.6,0-1.2,0.1-1.9,0.1c-0.6,0-1.3,0.1-1.9,0.2
	c-0.6,0.1-1.2,0.2-1.8,0.2V598.4z M474.4,580.2c0.7,0.5,1,1.3,1,2.3c0,1.3-0.4,2.2-1.2,2.8c-0.8,0.6-1.9,0.8-3.3,0.8h-2.1v-6.6
	c0.3-0.1,0.6-0.1,1.1-0.1c0.5,0,1,0,1.5,0C472.7,579.4,473.7,579.7,474.4,580.2z M499.4,590.1c0,1.7-0.3,2.9-1,3.6
	c-0.7,0.8-1.8,1.1-3.3,1.1c-0.8,0-1.4-0.1-2-0.2c-0.6-0.2-1.1-0.4-1.4-0.8c-0.4-0.4-0.7-0.9-0.9-1.5c-0.2-0.6-0.3-1.4-0.3-2.2v-14.3
	h-5v15.1c0,5.2,3.2,7.8,9.6,7.8c1.3,0,2.5-0.2,3.7-0.5c1.1-0.3,2.1-0.8,2.8-1.5c0.8-0.7,1.4-1.6,1.8-2.6c0.4-1.1,0.7-2.3,0.7-3.8
	v-14.6h-4.7V590.1z M518.1,594.3c-0.8,0.4-1.9,0.7-3.4,0.7c-0.6,0-1.2,0-1.8-0.1c-0.6-0.1-1.2-0.2-1.7-0.3c-0.5-0.1-1-0.3-1.4-0.4
	c-0.4-0.1-0.8-0.3-1-0.4l-1.6,3.8c0.7,0.3,1.7,0.6,3,0.9c1.4,0.3,3,0.5,4.8,0.5c1.4,0,2.6-0.1,3.8-0.4c1.1-0.3,2.1-0.7,2.9-1.3
	c0.8-0.6,1.4-1.3,1.9-2.2c0.4-0.9,0.7-1.9,0.7-3.1c0-1.2-0.3-2.2-0.9-3c-0.6-0.8-1.3-1.5-2.1-2c-0.9-0.5-1.8-1-2.8-1.4
	c-1-0.4-1.9-0.8-2.8-1.1c-0.9-0.4-1.6-0.8-2.1-1.2s-0.9-1-0.9-1.6c0-0.7,0.3-1.2,0.9-1.6c0.6-0.4,1.5-0.6,2.7-0.6
	c1.2,0,2.4,0.1,3.4,0.4c1.1,0.2,1.9,0.5,2.4,0.8l1.6-3.7c-0.8-0.4-1.9-0.8-3.2-1c-1.3-0.2-2.7-0.3-4.2-0.3c-1.3,0-2.4,0.1-3.5,0.4
	c-1,0.3-1.9,0.7-2.7,1.2c-0.8,0.5-1.3,1.2-1.8,2c-0.4,0.8-0.6,1.8-0.6,2.9c0,1.3,0.3,2.3,0.9,3.1c0.6,0.8,1.3,1.5,2.1,2.1
	c0.9,0.5,1.8,1,2.8,1.4c1,0.4,1.9,0.7,2.8,1.1c0.9,0.4,1.6,0.7,2.1,1.2c0.6,0.4,0.9,1,0.9,1.7C519.3,593.2,518.9,593.9,518.1,594.3z
	"/>
</svg>
